<svg width="39" height="30" viewBox="0 0 39 30" fill="none" xmlns="http://www.w3.org/2000/svg">
<path d="M32.7709 3.17346C30.3276 2.07157 27.7087 1.25713 24.9699 0.794018C24.9455 0.789336 24.9203 0.792353 24.8977 0.802653C24.8751 0.812953 24.8562 0.830026 24.8437 0.851508C24.5084 1.44078 24.1347 2.20891 23.8728 2.81574C20.9681 2.38175 18.0151 2.38175 15.1104 2.81574C14.8187 2.14321 14.4898 1.48745 14.1251 0.851508C14.1127 0.829762 14.094 0.812302 14.0715 0.80146C14.049 0.790617 14.0237 0.786907 13.9989 0.790824C11.2618 1.25394 8.64282 2.06837 6.1979 3.17186C6.17687 3.18068 6.15904 3.19573 6.1468 3.21498C1.17713 10.521 -0.185057 17.6465 0.48406 24.6826C0.485922 24.6998 0.491271 24.7165 0.499781 24.7316C0.508292 24.7467 0.519786 24.7599 0.533565 24.7704C3.43423 26.8823 6.66954 28.491 10.104 29.5293C10.128 29.5367 10.1536 29.5367 10.1775 29.5293C10.2014 29.5219 10.2226 29.5074 10.2382 29.4878C10.9772 28.4994 11.6321 27.4508 12.196 26.353C12.2038 26.338 12.2083 26.3215 12.2092 26.3046C12.2101 26.2877 12.2074 26.2708 12.2012 26.255C12.1949 26.2393 12.1854 26.2251 12.1732 26.2133C12.1611 26.2016 12.1465 26.1926 12.1305 26.1869C11.0989 25.7984 10.0994 25.3296 9.14106 24.7848C9.12384 24.775 9.10933 24.761 9.09883 24.7442C9.08833 24.7274 9.08217 24.7082 9.08091 24.6884C9.07964 24.6687 9.08331 24.6489 9.09158 24.6309C9.09985 24.6128 9.11246 24.5971 9.12828 24.5852C9.3295 24.4367 9.53071 24.2818 9.72235 24.1269C9.73959 24.1129 9.76037 24.1041 9.78236 24.1013C9.80436 24.0984 9.8267 24.1018 9.84691 24.1109C16.1181 26.9279 22.9099 26.9279 29.1076 24.1109C29.1278 24.1012 29.1504 24.0975 29.1727 24.1C29.195 24.1025 29.2162 24.1113 29.2337 24.1253C29.4254 24.2818 29.625 24.4367 29.8278 24.5852C29.8438 24.5969 29.8566 24.6124 29.8651 24.6302C29.8737 24.6481 29.8776 24.6678 29.8767 24.6876C29.8757 24.7074 29.8699 24.7266 29.8597 24.7436C29.8495 24.7605 29.8352 24.7747 29.8182 24.7848C28.8632 25.3342 27.8699 25.7989 26.8271 26.1853C26.8111 26.1911 26.7965 26.2003 26.7844 26.2122C26.7722 26.2241 26.7626 26.2385 26.7565 26.2543C26.7503 26.2702 26.7475 26.2872 26.7484 26.3042C26.7493 26.3213 26.7538 26.3379 26.7617 26.353C27.3366 27.4501 27.9945 28.4945 28.7179 29.4862C28.733 29.5066 28.7539 29.5218 28.7779 29.5298C28.8019 29.5378 28.8278 29.5382 28.8521 29.5309C32.2924 28.4955 35.533 26.886 38.4369 24.7704C38.4511 24.7605 38.4629 24.7477 38.4718 24.7329C38.4806 24.718 38.4861 24.7014 38.488 24.6842C39.2865 16.5494 37.1498 9.48136 32.8205 3.21817C32.8098 3.19782 32.7923 3.18195 32.7709 3.17346ZM13.1334 20.398C11.2458 20.398 9.68881 18.6909 9.68881 16.5973C9.68881 14.5021 11.2155 12.7966 13.1334 12.7966C15.0657 12.7966 16.6083 14.5165 16.578 16.5973C16.578 18.6925 15.0513 20.398 13.1334 20.398V20.398ZM25.869 20.398C23.9798 20.398 22.4244 18.6909 22.4244 16.5973C22.4244 14.5021 23.9495 12.7966 25.869 12.7966C27.8013 12.7966 29.3439 14.5165 29.3136 16.5973C29.3136 18.6925 27.8029 20.398 25.869 20.398V20.398Z" fill="white"/>
<path d="M32.7709 3.17346C30.3276 2.07157 27.7087 1.25713 24.9699 0.794018C24.9455 0.789336 24.9203 0.792353 24.8977 0.802653C24.8751 0.812953 24.8562 0.830026 24.8437 0.851508C24.5084 1.44078 24.1347 2.20891 23.8728 2.81574C20.9681 2.38175 18.0151 2.38175 15.1104 2.81574C14.8187 2.14321 14.4898 1.48745 14.1251 0.851508C14.1127 0.829762 14.094 0.812302 14.0715 0.80146C14.049 0.790617 14.0237 0.786907 13.9989 0.790824C11.2618 1.25394 8.64282 2.06837 6.1979 3.17186C6.17687 3.18068 6.15904 3.19573 6.1468 3.21498C1.17713 10.521 -0.185057 17.6465 0.48406 24.6826C0.485922 24.6998 0.491271 24.7165 0.499781 24.7316C0.508292 24.7467 0.519786 24.7599 0.533565 24.7704C3.43423 26.8823 6.66954 28.491 10.104 29.5293C10.128 29.5367 10.1536 29.5367 10.1775 29.5293C10.2014 29.5219 10.2226 29.5074 10.2382 29.4878C10.9772 28.4994 11.6321 27.4508 12.196 26.353C12.2038 26.338 12.2083 26.3215 12.2092 26.3046C12.2101 26.2877 12.2074 26.2708 12.2012 26.255C12.1949 26.2393 12.1854 26.2251 12.1732 26.2133C12.1611 26.2016 12.1465 26.1926 12.1305 26.1869C11.0989 25.7984 10.0994 25.3296 9.14106 24.7848C9.12384 24.775 9.10933 24.761 9.09883 24.7442C9.08833 24.7274 9.08217 24.7082 9.08091 24.6884C9.07964 24.6687 9.08331 24.6489 9.09158 24.6309C9.09985 24.6128 9.11246 24.5971 9.12828 24.5852C9.3295 24.4367 9.53071 24.2818 9.72235 24.1269C9.73959 24.1129 9.76037 24.1041 9.78236 24.1013C9.80436 24.0984 9.8267 24.1018 9.84691 24.1109C16.1181 26.9279 22.9099 26.9279 29.1076 24.1109C29.1278 24.1012 29.1504 24.0975 29.1727 24.1C29.195 24.1025 29.2162 24.1113 29.2337 24.1253C29.4254 24.2818 29.625 24.4367 29.8278 24.5852C29.8438 24.5969 29.8566 24.6124 29.8651 24.6302C29.8737 24.6481 29.8776 24.6678 29.8767 24.6876C29.8757 24.7074 29.8699 24.7266 29.8597 24.7436C29.8495 24.7605 29.8352 24.7747 29.8182 24.7848C28.8632 25.3342 27.8699 25.7989 26.8271 26.1853C26.8111 26.1911 26.7965 26.2003 26.7844 26.2122C26.7722 26.2241 26.7626 26.2385 26.7565 26.2543C26.7503 26.2702 26.7475 26.2872 26.7484 26.3042C26.7493 26.3213 26.7538 26.3379 26.7617 26.353C27.3366 27.4501 27.9945 28.4945 28.7179 29.4862C28.733 29.5066 28.7539 29.5218 28.7779 29.5298C28.8019 29.5378 28.8278 29.5382 28.8521 29.5309C32.2924 28.4955 35.533 26.886 38.4369 24.7704C38.4511 24.7605 38.4629 24.7477 38.4718 24.7329C38.4806 24.718 38.4861 24.7014 38.488 24.6842C39.2865 16.5494 37.1498 9.48136 32.8205 3.21817C32.8098 3.19782 32.7923 3.18195 32.7709 3.17346ZM13.1334 20.398C11.2458 20.398 9.68881 18.6909 9.68881 16.5973C9.68881 14.5021 11.2155 12.7966 13.1334 12.7966C15.0657 12.7966 16.6083 14.5165 16.578 16.5973C16.578 18.6925 15.0513 20.398 13.1334 20.398V20.398ZM25.869 20.398C23.9798 20.398 22.4244 18.6909 22.4244 16.5973C22.4244 14.5021 23.9495 12.7966 25.869 12.7966C27.8013 12.7966 29.3439 14.5165 29.3136 16.5973C29.3136 18.6925 27.8029 20.398 25.869 20.398V20.398Z" fill="#0086FB"/>
</svg>
