<svg width="70" height="70" viewBox="0 0 70 70" fill="none" xmlns="http://www.w3.org/2000/svg">
<g clip-path="url(#clip0_574_1741)">
<path d="M59.2574 13.1018C54.7949 11.0893 50.0115 9.60175 45.0094 8.75592C44.9649 8.74737 44.9188 8.75288 44.8775 8.77169C44.8362 8.7905 44.8018 8.82169 44.779 8.86092C44.1665 9.93717 43.484 11.3401 43.0057 12.4484C37.7006 11.6558 32.3071 11.6558 27.002 12.4484C26.4692 11.2201 25.8684 10.0224 25.2024 8.86092C25.1798 8.8212 25.1456 8.78931 25.1045 8.76951C25.0633 8.74971 25.0171 8.74293 24.972 8.75009C19.9728 9.59592 15.1894 11.0834 10.724 13.0988C10.6856 13.1149 10.653 13.1424 10.6307 13.1776C1.55403 26.5213 -0.933885 39.5355 0.288199 52.3863C0.291599 52.4178 0.301369 52.4483 0.316913 52.4758C0.332457 52.5034 0.35345 52.5276 0.378615 52.5468C5.67643 56.4038 11.5854 59.3421 17.8582 61.2384C17.9019 61.2519 17.9487 61.2518 17.9924 61.2383C18.0361 61.2248 18.0747 61.1984 18.1032 61.1626C19.453 59.3574 20.6492 57.4422 21.679 55.4372C21.6933 55.4098 21.7016 55.3796 21.7032 55.3487C21.7048 55.3178 21.6998 55.287 21.6884 55.2582C21.6771 55.2295 21.6597 55.2035 21.6375 55.182C21.6152 55.1605 21.5886 55.1441 21.5595 55.1338C19.6753 54.4243 17.8497 53.5681 16.0994 52.573C16.068 52.5551 16.0415 52.5296 16.0223 52.4989C16.0031 52.4681 15.9919 52.4331 15.9896 52.397C15.9873 52.3609 15.994 52.3247 16.0091 52.2918C16.0242 52.2589 16.0472 52.2302 16.0761 52.2084C16.4436 51.9372 16.8111 51.6543 17.1611 51.3713C17.1926 51.3459 17.2306 51.3297 17.2707 51.3246C17.3109 51.3194 17.3517 51.3255 17.3886 51.3422C28.8424 56.4872 41.247 56.4872 52.5665 51.3422C52.6035 51.3245 52.6448 51.3176 52.6855 51.3223C52.7262 51.3269 52.7649 51.3429 52.7969 51.3684C53.1469 51.6543 53.5115 51.9372 53.882 52.2084C53.9111 52.2298 53.9346 52.258 53.9501 52.2907C53.9657 52.3233 53.973 52.3593 53.9712 52.3954C53.9695 52.4315 53.9588 52.4667 53.9402 52.4977C53.9216 52.5286 53.8955 52.5545 53.8645 52.573C52.1203 53.5763 50.3061 54.4251 48.4015 55.1309C48.3723 55.1415 48.3456 55.1583 48.3234 55.18C48.3011 55.2018 48.2837 55.228 48.2724 55.257C48.2611 55.286 48.2561 55.317 48.2577 55.3481C48.2594 55.3792 48.2676 55.4095 48.282 55.4372C49.332 57.4409 50.5336 59.3484 51.8549 61.1597C51.8823 61.1968 51.9206 61.2246 51.9645 61.2392C52.0083 61.2539 52.0556 61.2546 52.0999 61.2413C58.3834 59.3503 64.302 56.4107 69.6057 52.5468C69.6316 52.5287 69.6533 52.5053 69.6694 52.4781C69.6855 52.4509 69.6956 52.4206 69.699 52.3893C71.1574 37.5318 67.2549 24.6226 59.3478 13.1834C59.3284 13.1462 59.2963 13.1173 59.2574 13.1018ZM23.3911 44.5609C19.9436 44.5609 17.0999 41.443 17.0999 37.6193C17.0999 33.7926 19.8882 30.6776 23.3911 30.6776C26.9203 30.6776 29.7378 33.8188 29.6824 37.6193C29.6824 41.4459 26.894 44.5609 23.3911 44.5609ZM46.6515 44.5609C43.2011 44.5609 40.3603 41.443 40.3603 37.6193C40.3603 33.7926 43.1457 30.6776 46.6515 30.6776C50.1807 30.6776 52.9982 33.8188 52.9428 37.6193C52.9428 41.4459 50.1836 44.5609 46.6515 44.5609Z" fill="#0086FB"/>
<circle cx="55" cy="16" r="15" fill="#FF543D"/>
<path d="M54.8801 16.768H51.4721V20.224H50.1121V16.768H46.7201V15.536H50.1121V12.064H51.4721V15.536H54.8801V16.768ZM57.21 13.344C57.2847 12.3627 57.6633 11.5947 58.346 11.04C59.0287 10.4853 59.914 10.208 61.002 10.208C61.7273 10.208 62.3513 10.3413 62.874 10.608C63.4073 10.864 63.8073 11.216 64.074 11.664C64.3513 12.112 64.49 12.6187 64.49 13.184C64.49 13.8453 64.298 14.416 63.914 14.896C63.5407 15.376 63.05 15.6853 62.442 15.824V15.904C63.1353 16.0747 63.6847 16.4107 64.09 16.912C64.4953 17.4133 64.698 18.0693 64.698 18.88C64.698 19.488 64.5593 20.0373 64.282 20.528C64.0047 21.008 63.5887 21.3867 63.034 21.664C62.4793 21.9413 61.8127 22.08 61.034 22.08C59.9033 22.08 58.9753 21.7867 58.25 21.2C57.5247 20.6027 57.1193 19.76 57.034 18.672H58.442C58.5167 19.312 58.778 19.8347 59.226 20.24C59.674 20.6453 60.2713 20.848 61.018 20.848C61.7647 20.848 62.33 20.656 62.714 20.272C63.1087 19.8773 63.306 19.3707 63.306 18.752C63.306 17.952 63.0393 17.376 62.506 17.024C61.9727 16.672 61.1673 16.496 60.09 16.496H59.722V15.28H60.106C61.0873 15.2693 61.8287 15.1093 62.33 14.8C62.8313 14.48 63.082 13.9893 63.082 13.328C63.082 12.7627 62.8953 12.3093 62.522 11.968C62.1593 11.6267 61.6367 11.456 60.954 11.456C60.2927 11.456 59.7593 11.6267 59.354 11.968C58.9487 12.3093 58.7087 12.768 58.634 13.344H57.21Z" fill="white"/>
</g>
<defs>
<clipPath id="clip0_574_1741">
<rect width="70" height="70" fill="white"/>
</clipPath>
</defs>
</svg>
