<svg width="38" height="28" viewBox="0 0 38 28" fill="none" xmlns="http://www.w3.org/2000/svg">
<path d="M4.49244 0.800049H33.6424C36.3924 0.800049 37.7784 2.09805 37.7784 4.73805V23.262C37.7784 25.88 36.3924 27.2 33.6424 27.2H4.49244C1.74244 27.2 0.356445 25.88 0.356445 23.262V4.73805C0.356445 2.09805 1.74244 0.800049 4.49244 0.800049ZM19.0564 19.7201L33.8844 7.55405C34.4124 7.11405 34.8304 6.10205 34.1704 5.20005C33.5324 4.29805 32.3664 4.27605 31.5964 4.82605L19.0564 13.318L6.53845 4.82605C5.76845 4.27605 4.60245 4.29805 3.96445 5.20005C3.30445 6.10205 3.72244 7.11405 4.25044 7.55405L19.0564 19.7201Z" fill="#0086FB"/>
</svg>
