<svg width="269" height="86" viewBox="0 0 269 86" fill="none" xmlns="http://www.w3.org/2000/svg">
<g clip-path="url(#clip0_562_1787)">
<path d="M9.85131 61.428C12.4916 63.4635 16.7724 63.4635 19.4127 61.428C22.0529 59.3925 22.0529 56.0922 19.4127 54.0567C16.7724 52.0212 12.4916 52.0212 9.85131 54.0567C7.21102 56.0922 7.21102 59.3925 9.85131 61.428Z" fill="white"/>
<path d="M37.2554 33.7861C41.2159 36.8393 47.637 36.8393 51.5975 33.7861C55.5578 30.7327 55.5578 25.7825 51.5975 22.7293C47.637 19.676 41.2159 19.676 37.2554 22.7293C33.2951 25.7825 33.2951 30.7327 37.2554 33.7861Z" fill="white"/>
<path d="M22.7077 47.607C26.008 50.1513 31.359 50.1513 34.6593 47.607C37.9597 45.0626 37.9597 40.9374 34.6593 38.3929C31.359 35.8487 26.008 35.8487 22.7077 38.3929C19.4073 40.9374 19.4073 45.0626 22.7077 47.607Z" fill="white"/>
<path d="M1.48516 45.7642C3.46538 47.2908 6.67594 47.2908 8.65616 45.7642C10.6364 44.2376 10.6364 41.7625 8.65616 40.2358C6.67594 38.7092 3.46538 38.7092 1.48516 40.2358C-0.495055 41.7625 -0.495053 44.2376 1.48516 45.7642Z" fill="white"/>
<path d="M22.7077 18.1223C26.008 20.6666 31.359 20.6666 34.6593 18.1223C37.9597 15.5779 37.9597 11.4527 34.6593 8.90828C31.359 6.36391 26.008 6.3639 22.7077 8.90828C19.4073 11.4527 19.4073 15.5779 22.7077 18.1223Z" fill="white"/>
<path d="M9.85131 31.9433C12.4916 33.9788 16.7724 33.9788 19.4127 31.9433C22.0529 29.9078 22.0529 26.6075 19.4127 24.5721C16.7724 22.5366 12.4916 22.5366 9.85131 24.5721C7.21101 26.6075 7.21103 29.9078 9.85131 31.9433Z" fill="white"/>
<path d="M22.7077 77.0918C26.008 79.636 31.359 79.636 34.6593 77.0918C37.9597 74.5473 37.9597 70.4221 34.6593 67.8777C31.359 65.3334 26.008 65.3334 22.7077 67.8777C19.4073 70.4221 19.4073 74.5473 22.7077 77.0918Z" fill="white"/>
<path d="M54.688 48.5285C58.6485 51.5816 65.0697 51.5816 69.0301 48.5285C72.9906 45.4753 72.9906 40.5249 69.0301 37.4717C65.0697 34.4184 58.6485 34.4184 54.688 37.4717C50.7277 40.5249 50.7277 45.4753 54.688 48.5285Z" fill="white"/>
<path d="M37.2554 63.2706C41.2159 66.324 47.637 66.324 51.5975 63.2706C55.5578 60.2175 55.5578 55.2673 51.5975 52.2139C47.637 49.1607 41.2159 49.1607 37.2554 52.2139C33.2951 55.2673 33.2951 60.2175 37.2554 63.2706Z" fill="white"/>
</g>
<path d="M110.958 49.442H126.294L124.62 59H96L97.62 49.982L116.196 30.272H101.076L102.75 20.768H131.37L129.804 29.786L110.958 49.442ZM148.752 20.768L142.002 59H130.014L136.764 20.768H148.752ZM183.11 33.89C182.678 36.302 181.742 38.498 180.302 40.478C178.862 42.422 176.936 43.97 174.524 45.122C172.148 46.274 169.412 46.85 166.316 46.85H161.564L159.404 59H147.416L154.166 20.768H170.906C174.974 20.768 178.07 21.686 180.194 23.522C182.318 25.358 183.38 27.878 183.38 31.082C183.38 31.874 183.29 32.81 183.11 33.89ZM166.64 37.4C169.088 37.4 170.528 36.23 170.96 33.89C171.032 33.458 171.068 33.152 171.068 32.972C171.068 31.244 170.006 30.38 167.882 30.38H164.48L163.238 37.4H166.64ZM218.178 33.89C217.746 36.302 216.81 38.498 215.37 40.478C213.93 42.422 212.004 43.97 209.592 45.122C207.216 46.274 204.48 46.85 201.384 46.85H196.632L194.472 59H182.484L189.234 20.768H205.974C210.042 20.768 213.138 21.686 215.262 23.522C217.386 25.358 218.448 27.878 218.448 31.082C218.448 31.874 218.358 32.81 218.178 33.89ZM201.708 37.4C204.156 37.4 205.596 36.23 206.028 33.89C206.1 33.458 206.136 33.152 206.136 32.972C206.136 31.244 205.074 30.38 202.95 30.38H199.548L198.306 37.4H201.708ZM261.023 20.768L242.609 47.39L240.557 59H228.569L230.621 47.39L221.603 20.768H235.319L239.045 34.322L247.523 20.768H261.023Z" fill="white"/>
<defs>
<clipPath id="clip0_562_1787">
<rect width="72" height="72" fill="white" transform="translate(0 7)"/>
</clipPath>
</defs>
</svg>
