<svg width="31" height="31" viewBox="0 0 31 31" fill="none" xmlns="http://www.w3.org/2000/svg">
<path d="M26.8518 3.61017C26.2266 2.96844 25.3012 2.72936 24.4384 2.98102L4.31761 8.8321C3.40724 9.08501 2.76198 9.81105 2.58815 10.7334C2.41058 11.6721 3.03084 12.8637 3.84117 13.362L10.1325 17.2287C10.7778 17.6251 11.6106 17.5257 12.1446 16.9871L19.3488 9.73807C19.7114 9.36058 20.3117 9.36058 20.6743 9.73807C21.037 10.103 21.037 10.6944 20.6743 11.0719L13.4576 18.3222C12.9224 18.8595 12.8223 19.6962 13.2163 20.3455L17.0603 26.6999C17.5105 27.4549 18.2858 27.8827 19.1362 27.8827C19.2362 27.8827 19.3488 27.8827 19.4488 27.8701C20.4242 27.7443 21.1995 27.0774 21.4871 26.1337L27.4521 6.03868C27.7147 5.18304 27.4771 4.2519 26.8518 3.61017Z" fill="white"/>
</svg>
