<svg width="37" height="30" viewBox="0 0 37 30" fill="none" xmlns="http://www.w3.org/2000/svg">
<path d="M36.7562 3.8841C35.4227 4.47496 33.9903 4.8742 32.4844 5.05465C34.0382 4.1249 35.2007 2.66159 35.7549 0.937748C34.295 1.80487 32.6973 2.41523 31.0311 2.74229C29.9107 1.54597 28.4266 0.753024 26.8094 0.486571C25.1921 0.220119 23.5321 0.495063 22.0871 1.26872C20.6421 2.04237 19.4929 3.27145 18.818 4.76513C18.1431 6.25882 17.9802 7.93353 18.3546 9.52927C15.3966 9.38075 12.5029 8.61191 9.86121 7.27265C7.21955 5.93339 4.88902 4.05363 3.02085 1.75538C2.38208 2.85727 2.01478 4.13482 2.01478 5.49541C2.01407 6.72025 2.3157 7.92633 2.8929 9.00665C3.47011 10.087 4.30505 11.0081 5.32364 11.6883C4.14234 11.6507 2.98711 11.3316 1.9541 10.7573V10.8531C1.95398 12.571 2.54821 14.2361 3.63597 15.5657C4.72372 16.8953 6.238 17.8077 7.92185 18.1479C6.82601 18.4445 5.6771 18.4882 4.5619 18.2757C5.03698 19.7538 5.9624 21.0464 7.20861 21.9725C8.45481 22.8986 9.95941 23.4117 11.5118 23.4402C8.87656 25.5089 5.62208 26.631 2.27189 26.6261C1.67844 26.6262 1.08549 26.5916 0.496094 26.5223C3.89673 28.7088 7.85533 29.8692 11.8982 29.8647C25.584 29.8647 33.0656 18.5296 33.0656 8.69886C33.0656 8.37948 33.0577 8.0569 33.0433 7.73751C34.4986 6.68509 35.7547 5.38186 36.753 3.88889L36.7562 3.8841Z" fill="white"/>
<path d="M36.7562 3.8841C35.4227 4.47496 33.9903 4.8742 32.4844 5.05465C34.0382 4.1249 35.2007 2.66159 35.7549 0.937748C34.295 1.80487 32.6973 2.41523 31.0311 2.74229C29.9107 1.54597 28.4266 0.753024 26.8094 0.486571C25.1921 0.220119 23.5321 0.495063 22.0871 1.26872C20.6421 2.04237 19.4929 3.27145 18.818 4.76513C18.1431 6.25882 17.9802 7.93353 18.3546 9.52927C15.3966 9.38075 12.5029 8.61191 9.86121 7.27265C7.21955 5.93339 4.88902 4.05363 3.02085 1.75538C2.38208 2.85727 2.01478 4.13482 2.01478 5.49541C2.01407 6.72025 2.3157 7.92633 2.8929 9.00665C3.47011 10.087 4.30505 11.0081 5.32364 11.6883C4.14234 11.6507 2.98711 11.3316 1.9541 10.7573V10.8531C1.95398 12.571 2.54821 14.2361 3.63597 15.5657C4.72372 16.8953 6.238 17.8077 7.92185 18.1479C6.82601 18.4445 5.6771 18.4882 4.5619 18.2757C5.03698 19.7538 5.9624 21.0464 7.20861 21.9725C8.45481 22.8986 9.95941 23.4117 11.5118 23.4402C8.87656 25.5089 5.62208 26.631 2.27189 26.6261C1.67844 26.6262 1.08549 26.5916 0.496094 26.5223C3.89673 28.7088 7.85533 29.8692 11.8982 29.8647C25.584 29.8647 33.0656 18.5296 33.0656 8.69886C33.0656 8.37948 33.0577 8.0569 33.0433 7.73751C34.4986 6.68509 35.7547 5.38186 36.753 3.88889L36.7562 3.8841Z" fill="#0086FB"/>
</svg>
